<svg width="57" height="57" viewBox="0 0 57 57" fill="none" xmlns="http://www.w3.org/2000/svg">
<g clip-path="url(#clip0_2459_3375)">
<path d="M41 0C49.8366 6.44258e-08 57 7.16344 57 16V41C57 49.8366 49.8366 57 41 57H16C7.16344 57 6.443e-08 49.8366 0 41V16C6.443e-08 7.16344 7.16344 6.44258e-08 16 0H41ZM16 7C11.0294 7 7.00001 11.0294 7 16V40.7002C7.0001 45.6707 11.0295 49.7002 16 49.7002H40.7002C45.6706 49.7001 49.7001 45.6706 49.7002 40.7002V16C49.7002 11.0295 45.6707 7.00011 40.7002 7H16Z" fill="black"/>
<rect x="16" y="16" width="25" height="25" rx="6" fill="black"/>
</g>
<defs>
<clipPath id="clip0_2459_3375">
<rect width="57" height="57" fill="white"/>
</clipPath>
</defs>
</svg>
