<svg width="40" height="40" viewBox="0 0 40 40" fill="none" xmlns="http://www.w3.org/2000/svg">
<path d="M26.25 0C31.0825 0 35 3.91751 35 8.75V26.25C35 31.0825 31.0825 35 26.25 35H8.75C3.91751 35 5.63742e-07 31.0825 0 26.25V8.75C0 3.91751 3.91751 5.63724e-07 8.75 0H26.25ZM10.25 5C7.35051 5 5 7.3505 5 10.25V24.75C5 27.6495 7.3505 30 10.25 30H24.75C27.6495 30 30 27.6495 30 24.75V10.25C30 7.35051 27.6495 5 24.75 5H10.25Z" fill="black"/>
<rect x="10" y="10" width="15" height="15" rx="3.5" fill="black"/>
</svg>
