<svg width="35" height="35" viewBox="0 0 35 35" fill="none" xmlns="http://www.w3.org/2000/svg">
<g clip-path="url(#clip0_2467_3404)">
<path d="M25.1758 0C30.6015 0.000185215 34.9998 4.39854 35 9.82422V25.1758C34.9998 30.6015 30.6015 34.9998 25.1758 35H9.82422C4.39854 34.9998 0.000185219 30.6015 0 25.1758V9.82422C0.000185219 4.39854 4.39854 0.000185215 9.82422 0H25.1758ZM10.5264 5C7.47427 5 5 7.47427 5 10.5264V24.4736C5 27.5257 7.47427 30 10.5264 30H24.4736C27.5257 30 30 27.5257 30 24.4736V10.5264C30 7.47427 27.5257 5 24.4736 5H10.5264Z" fill="black"/>
<rect x="10" y="10" width="15" height="15" rx="3.68421" fill="black"/>
</g>
<defs>
<clipPath id="clip0_2467_3404">
<rect width="35" height="35" fill="white"/>
</clipPath>
</defs>
</svg>
